<?xml version="1.0" encoding="UTF-8" standalone="no"?>
<!-- Created with Inkscape (http://www.inkscape.org/) -->

<svg
   xmlns:osb="http://www.openswatchbook.org/uri/2009/osb"
   xmlns:dc="http://purl.org/dc/elements/1.1/"
   xmlns:cc="http://creativecommons.org/ns#"
   xmlns:rdf="http://www.w3.org/1999/02/22-rdf-syntax-ns#"
   xmlns:svg="http://www.w3.org/2000/svg"
   xmlns="http://www.w3.org/2000/svg"
   xmlns:sodipodi="http://sodipodi.sourceforge.net/DTD/sodipodi-0.dtd"
   xmlns:inkscape="http://www.inkscape.org/namespaces/inkscape"
   width="8.5in"
   height="11in"
   viewBox="0 0 765.00001 990.00002"
   id="svg2"
   version="1.1"
   inkscape:version="0.91 r13725"
   sodipodi:docname="Pre-tied 2.svg">
  <defs
     id="defs4">
    <inkscape:path-effect
       effect="powerstroke"
       id="path-effect4306"
       is_visible="true"
       offset_points="0,0.5"
       sort_points="true"
       interpolator_type="CubicBezierJohan"
       interpolator_beta="0.2"
       start_linecap_type="zerowidth"
       linejoin_type="round"
       miter_limit="4"
       end_linecap_type="zerowidth"
       cusp_linecap_type="round" />
    <inkscape:path-effect
       effect="spiro"
       id="path-effect4298"
       is_visible="true" />
    <inkscape:path-effect
       effect="spiro"
       id="path-effect4294"
       is_visible="true" />
    <inkscape:path-effect
       effect="powerstroke"
       id="path-effect4274"
       is_visible="true"
       offset_points="0,0.5"
       sort_points="true"
       interpolator_type="CubicBezierJohan"
       interpolator_beta="0.2"
       start_linecap_type="zerowidth"
       linejoin_type="round"
       miter_limit="4"
       end_linecap_type="zerowidth"
       cusp_linecap_type="round" />
    <inkscape:path-effect
       cusp_linecap_type="round"
       end_linecap_type="zerowidth"
       miter_limit="4"
       linejoin_type="round"
       start_linecap_type="zerowidth"
       interpolator_beta="0.2"
       interpolator_type="CubicBezierJohan"
       sort_points="true"
       offset_points="0,0.5"
       is_visible="true"
       id="path-effect4165"
       effect="powerstroke" />
    <inkscape:path-effect
       effect="powerstroke"
       id="path-effect4153"
       is_visible="true"
       offset_points="0,0.5"
       sort_points="true"
       interpolator_type="CubicBezierJohan"
       interpolator_beta="0.2"
       start_linecap_type="zerowidth"
       linejoin_type="round"
       miter_limit="4"
       end_linecap_type="zerowidth"
       cusp_linecap_type="round" />
    <linearGradient
       id="linearGradient4167"
       osb:paint="solid">
      <stop
         style="stop-color:#e013d5;stop-opacity:1;"
         offset="0"
         id="stop4169" />
    </linearGradient>
    <linearGradient
       id="linearGradient4157"
       osb:paint="solid">
      <stop
         style="stop-color:#ffffff;stop-opacity:1;"
         offset="0"
         id="stop4159" />
    </linearGradient>
  </defs>
  <sodipodi:namedview
     id="base"
     pagecolor="#ffffff"
     bordercolor="#666666"
     borderopacity="1.0"
     inkscape:pageopacity="0.0"
     inkscape:pageshadow="2"
     inkscape:zoom="0.9983453"
     inkscape:cx="397.38114"
     inkscape:cy="300.89605"
     inkscape:document-units="in"
     inkscape:current-layer="layer1"
     showgrid="false"
     inkscape:window-width="1680"
     inkscape:window-height="954"
     inkscape:window-x="0"
     inkscape:window-y="1"
     inkscape:window-maximized="1"
     units="in"
     showguides="true"
     inkscape:guide-bbox="true" />
  <metadata
     id="metadata7">
    <rdf:RDF>
      <cc:Work
         rdf:about="">
        <dc:format>image/svg+xml</dc:format>
        <dc:type
           rdf:resource="http://purl.org/dc/dcmitype/StillImage" />
        <dc:title />
      </cc:Work>
    </rdf:RDF>
  </metadata>
  <g
     inkscape:label="Layer 1"
     inkscape:groupmode="layer"
     id="layer1"
     transform="translate(0,-62.362175)">
    <rect
       style="opacity:1;fill:none;fill-opacity:0.99375;fill-rule:evenodd;stroke:none;stroke-width:2.26300001;stroke-miterlimit:4;stroke-dasharray:none;stroke-dashoffset:0;stroke-opacity:1"
       id="rect4173"
       width="149.8047"
       height="80.383011"
       x="355.63391"
       y="95.073616" />
    <text
       xml:space="preserve"
       style="font-style:normal;font-variant:normal;font-weight:normal;font-stretch:normal;font-size:40px;line-height:125%;font-family:'MT Extra';-inkscape-font-specification:'MT Extra, Normal';text-align:start;letter-spacing:0px;word-spacing:0px;writing-mode:lr-tb;text-anchor:start;fill:#000000;fill-opacity:1;stroke:none;stroke-width:1px;stroke-linecap:butt;stroke-linejoin:miter;stroke-opacity:1"
       x="203.48059"
       y="207.66956"
       id="text4268"
       sodipodi:linespacing="125%"><tspan
         sodipodi:role="line"
         id="tspan4270"
         x="203.48059"
         y="207.66956"
         style="font-style:normal;font-variant:normal;font-weight:normal;font-stretch:normal;font-size:50px;line-height:125%;font-family:AppleGothic;-inkscape-font-specification:'AppleGothic, Normal';text-align:start;writing-mode:lr-tb;text-anchor:start">Pre-tied bow tie</tspan></text>
    <flowRoot
       xml:space="preserve"
       id="flowRoot4280"
       style="fill:black;stroke:none;stroke-opacity:1;stroke-width:1px;stroke-linejoin:miter;stroke-linecap:butt;fill-opacity:1;font-family:'MT Extra';font-style:normal;font-weight:normal;font-size:40px;line-height:125%;letter-spacing:0px;word-spacing:0px;-inkscape-font-specification:'MT Extra, Normal';font-stretch:normal;font-variant:normal;text-anchor:start;text-align:start;writing-mode:lr"><flowRegion
         id="flowRegion4282"><rect
           id="rect4284"
           width="42.681297"
           height="62.533062"
           x="180.65106"
           y="631.6756" /></flowRegion><flowPara
         id="flowPara4286" /></flowRoot>    <g
       id="g4309"
       transform="translate(8.0132595,31.051381)">
      <rect
         style="opacity:1;fill:none;fill-opacity:1;fill-rule:evenodd;stroke:#000000;stroke-width:1.74685037;stroke-miterlimit:4;stroke-dasharray:none;stroke-dashoffset:0;stroke-opacity:1"
         id="rect4161"
         width="69.475235"
         height="69.439232"
         x="349.49506"
         y="413.30115" />
      <path
         style="fill:#000000;fill-rule:evenodd;stroke:#000000;stroke-width:0.99000001;stroke-linecap:butt;stroke-linejoin:miter;stroke-miterlimit:4;stroke-dasharray:none;stroke-opacity:1"
         d="m 419.57141,413.15645 -0.008,-0.0342 c 43.72796,-37.10171 99.62663,-64.67192 156.74207,-72.38669 7.53342,21.18538 12.51947,43.86888 15.5954,63.2824 3.09459,19.53134 4.25217,35.73712 4.13081,43.74067 a 0.49549545,0.50471467 44.029976 0 0 1.7e-4,0.0229 c 0.70218,22.93405 -2.97267,48.05321 -7.60339,68.69658 -2.31486,10.31947 -4.86693,19.51315 -7.22654,26.74764 -2.36309,7.24517 -4.52732,12.49807 -6.04153,14.9361 a 0.5,0.5 0 0 0 0.2867,0.74436 c -0.003,-7.7e-4 0.0453,0.013 0.10262,0.0318 0.0668,0.0219 0.11132,0.0405 0.1091,0.0393 -6.9e-4,-3.6e-4 -0.0255,-0.0129 -0.0572,-0.0389 0.007,0.005 -0.16059,-0.11623 -0.17239,-0.34715 -0.008,-0.14811 0.0517,-0.27464 0.13029,-0.35947 0.0672,-0.0725 0.13863,-0.1055 0.1711,-0.11865 0.064,-0.0259 0.11316,-0.0285 0.11109,-0.0283 0.005,-4.3e-4 -0.0987,-7.1e-4 -0.36103,-0.0332 -56.87913,-7.04456 -107.04157,-32.94488 -156.01985,-76.53619 l -0.0851,-0.42014 0.21058,-67.81776 z m -0.98549,0.11805 -0.21074,67.86866 a 0.5,0.5 0 0 0 0.01,0.10078 l 0.12826,0.63339 a 0.5,0.5 0 0 0 0.1575,0.27415 c 49.12987,43.75806 99.51076,69.81134 156.68639,76.89262 0.25755,0.0319 0.43432,0.0485 0.56806,0.0373 0.0301,-0.003 0.10185,-0.01 0.18036,-0.0413 0.0397,-0.0161 0.11635,-0.0524 0.18691,-0.12849 0.082,-0.0884 0.14268,-0.2189 0.1349,-0.37122 -0.0122,-0.23934 -0.18655,-0.37046 -0.19266,-0.37546 -0.0443,-0.0363 -0.0872,-0.06 -0.11002,-0.072 -0.0907,-0.0478 -0.19964,-0.0839 -0.26413,-0.10506 -0.074,-0.0243 -0.13523,-0.0419 -0.13792,-0.0426 l 0.2867,0.74436 c 1.59248,-2.56406 3.77588,-7.8969 6.14274,-15.15361 2.37034,-7.26739 4.93052,-16.4917 7.25158,-26.83885 4.64038,-20.68643 8.33162,-45.88997 7.62753,-68.93463 0.12141,-8.09482 -1.04408,-24.34101 -4.14319,-43.90088 -3.10079,-19.57043 -8.14091,-42.4739 -15.77729,-63.84361 a 0.5,0.5 0 0 0 -0.53697,-0.32736 c -57.47256,7.66866 -113.70396,35.37582 -157.89394,72.86935 a 0.5,0.5 0 0 0 -0.16201,0.50086 l 0.0825,0.3349 z"
         id="path4163"
         inkscape:path-effect="#path-effect4165"
         inkscape:original-d="m 419.08592,413.27605 -0.0825,-0.3349 c 44.12847,-37.44134 100.27292,-65.10087 157.63659,-72.755 15.24578,42.66395 20.13525,91.48563 19.8912,107.58011 1.40784,45.9818 -14.7331,100.65525 -20.94648,110.65942 0,0 0.87368,0.25098 -0.16593,0.12222 -57.05145,-7.06589 -107.34153,-33.06165 -156.41536,-76.7698 l -0.12826,-0.63339 z"
         inkscape:connector-curvature="0"
         sodipodi:nodetypes="cccccsccc" />
      <path
         sodipodi:nodetypes="cccccsccc"
         inkscape:connector-curvature="0"
         inkscape:original-d="m 348.54563,482.07774 0.0825,0.3349 c -44.12847,37.44134 -100.27292,65.10087 -157.63659,72.755 -15.24578,-42.66395 -20.13525,-91.48563 -19.8912,-107.58011 -1.40784,-45.9818 13.74051,-97.67749 19.95389,-107.68166 0,0 -2.27804,-1.5489 -0.33036,-1.1148 33.63285,7.49613 108.83041,31.07647 157.90424,74.78462 l 0.12826,0.63339 z"
         inkscape:path-effect="#path-effect4306"
         id="path4226"
         d="m 348.06014,482.19734 0.008,0.0342 c -43.72796,37.10171 -99.62663,64.67192 -156.74207,72.38669 -7.53342,-21.18538 -12.51947,-43.86888 -15.5954,-63.2824 -3.09459,-19.53134 -4.25217,-35.73712 -4.13081,-43.74067 a 0.49549527,0.50471448 44.029977 0 0 -1.7e-4,-0.0229 c -0.70226,-22.93647 2.72525,-47.31249 7.10751,-67.2096 2.19075,-9.9468 4.61864,-18.76765 6.88496,-25.72226 2.26986,-6.96545 4.37066,-12.03022 5.8864,-14.4707 l -0.42475,0.2362 c 0,0 -0.56951,-0.38723 -0.89556,-0.72019 l 0.35724,-0.84982 c -0.0714,-0.073 -0.10022,-0.11454 -0.10564,-0.12436 -0.003,-0.005 0.016,0.0257 0.0232,0.083 0.009,0.0672 6.2e-4,0.17579 -0.0733,0.27891 -0.12733,0.17765 -0.29631,0.14169 -0.17808,0.14092 0.0684,-4.5e-4 0.20314,0.0135 0.43298,0.0648 33.57366,7.48294 108.57628,31.00811 157.55605,74.55925 l 0.0851,0.42008 -0.21058,67.81776 z m 0.98549,-0.11805 0.21074,-67.86866 a 0.5,0.5 0 0 0 -0.01,-0.10078 l -0.12826,-0.63339 a 0.5,0.5 0 0 0 -0.1575,-0.27415 c -49.17053,-43.79427 -124.4643,-67.39625 -158.12798,-74.89926 -0.25712,-0.0573 -0.47719,-0.0899 -0.65707,-0.0887 -0.12999,8.4e-4 -0.44053,0.0147 -0.62819,0.27648 -0.10407,0.1452 -0.12181,0.30442 -0.10602,0.42922 0.0145,0.11488 0.0575,0.20969 0.0933,0.27452 0.0713,0.1293 0.17515,0.24741 0.26674,0.34094 l 0.35724,-0.84983 c 0.32605,0.33296 0.89556,0.72019 0.89556,0.72019 l -0.42475,0.2362 c -1.59095,2.5616 -3.71371,7.71036 -5.98769,14.68846 -2.27751,6.98893 -4.71372,15.84164 -6.91076,25.81701 -4.39257,19.94394 -7.8349,44.40188 -7.13081,67.44387 -0.12141,8.09481 1.04408,24.341 4.14319,43.90087 3.10079,19.57043 8.14091,42.4739 15.77729,63.84361 a 0.5,0.5 0 0 0 0.53697,0.32736 c 57.47256,-7.66866 113.70396,-35.37582 157.89394,-72.86935 a 0.5,0.5 0 0 0 0.16201,-0.50086 l -0.0825,-0.3349 z"
         style="fill:#000000;fill-opacity:1;fill-rule:evenodd;stroke:#000000;stroke-width:1px;stroke-linecap:butt;stroke-linejoin:miter;stroke-opacity:1" />
      <text
         transform="matrix(-0.00542072,0.99998531,-0.99998531,-0.00542072,0,0)"
         sodipodi:linespacing="125%"
         id="text4276"
         y="-197.84314"
         x="348.84415"
         style="font-style:normal;font-variant:normal;font-weight:normal;font-stretch:normal;font-size:40px;line-height:125%;font-family:'MT Extra';-inkscape-font-specification:'MT Extra, Normal';text-align:start;letter-spacing:0px;word-spacing:0px;writing-mode:lr-tb;text-anchor:start;fill:#000000;fill-opacity:1;stroke:none;stroke-width:1px;stroke-linecap:butt;stroke-linejoin:miter;stroke-opacity:1"
         xml:space="preserve"><tspan
           style="font-style:normal;font-variant:normal;font-weight:normal;font-stretch:normal;font-size:11.25px;line-height:125%;font-family:AppleGothic;-inkscape-font-specification:'AppleGothic, Normal';text-align:start;writing-mode:lr-tb;text-anchor:start"
           y="-197.84314"
           x="348.84415"
           id="tspan4278"
           sodipodi:role="line">www.etsy.com/shop/MarinaPatterns</tspan></text>
      <text
         inkscape:transform-center-y="-80.399653"
         transform="matrix(-4.5143333e-4,0.9999999,-0.9999999,-4.5143333e-4,0,0)"
         xml:space="preserve"
         style="font-style:normal;font-variant:normal;font-weight:normal;font-stretch:normal;font-size:40px;line-height:125%;font-family:'MT Extra';-inkscape-font-specification:'MT Extra, Normal';text-align:start;letter-spacing:0px;word-spacing:0px;writing-mode:lr-tb;text-anchor:start;fill:#000000;fill-opacity:1;stroke:none;stroke-width:1px;stroke-linecap:butt;stroke-linejoin:miter;stroke-opacity:1"
         x="406.49774"
         y="-214.60843"
         id="text4288"
         sodipodi:linespacing="125%"><tspan
           sodipodi:role="line"
           id="tspan4290"
           x="406.49774"
           y="-214.60843"
           style="font-style:normal;font-variant:normal;font-weight:normal;font-stretch:normal;font-size:11.25px;line-height:125%;font-family:AppleGothic;-inkscape-font-specification:'AppleGothic, Normal';text-align:start;writing-mode:lr-tb;text-anchor:start">Pre-tied bow tie</tspan></text>
    </g>
    <g
       id="g4202"
       transform="translate(49.081215,15.024862)">
      <g
         id="g4199">
        <rect
           style="opacity:1;fill:none;fill-opacity:1;fill-rule:evenodd;stroke:#000000;stroke-width:1.71359062;stroke-miterlimit:4;stroke-dasharray:none;stroke-dashoffset:0;stroke-opacity:1"
           id="rect4318"
           width="88.286407"
           height="88.286407"
           x="582.59454"
           y="878.11066" />
      </g>
      <text
         sodipodi:linespacing="125%"
         id="text4320"
         y="910.41766"
         x="625.63867"
         style="font-style:normal;font-variant:normal;font-weight:normal;font-stretch:normal;font-size:40px;line-height:125%;font-family:'MT Extra';-inkscape-font-specification:'MT Extra, Normal';text-align:start;letter-spacing:0px;word-spacing:0px;writing-mode:lr-tb;text-anchor:start;fill:#000000;fill-opacity:1;stroke:none;stroke-width:1px;stroke-linecap:butt;stroke-linejoin:miter;stroke-opacity:1"
         xml:space="preserve"><tspan
           style="font-style:normal;font-variant:normal;font-weight:normal;font-stretch:normal;font-size:35px;line-height:125%;font-family:AppleGothic;-inkscape-font-specification:'AppleGothic, Normal';text-align:start;writing-mode:lr-tb;text-anchor:start"
           y="910.41766"
           x="625.63867"
           id="tspan4322"
           sodipodi:role="line">1&quot;</tspan></text>
      <text
         xml:space="preserve"
         style="font-style:normal;font-variant:normal;font-weight:normal;font-stretch:normal;font-size:40px;line-height:125%;font-family:'MT Extra';-inkscape-font-specification:'MT Extra, Normal';text-align:start;letter-spacing:0px;word-spacing:0px;writing-mode:lr-tb;text-anchor:start;fill:#000000;fill-opacity:1;stroke:none;stroke-width:1px;stroke-linecap:butt;stroke-linejoin:miter;stroke-opacity:1"
         x="580.32318"
         y="954.77124"
         id="text4324"
         sodipodi:linespacing="125%"><tspan
           sodipodi:role="line"
           id="tspan4326"
           x="580.32318"
           y="954.77124"
           style="font-style:normal;font-variant:normal;font-weight:normal;font-stretch:normal;font-size:35px;line-height:125%;font-family:AppleGothic;-inkscape-font-specification:'AppleGothic, Normal';text-align:start;writing-mode:lr-tb;text-anchor:start">1&quot;</tspan></text>
    </g>
    <g
       id="g4364"
       transform="translate(442.3798,38.301333)">
      <text
         sodipodi:linespacing="125%"
         id="text4328"
         y="781.61139"
         x="173.01636"
         style="font-style:normal;font-variant:normal;font-weight:normal;font-stretch:normal;font-size:40px;line-height:125%;font-family:'MT Extra';-inkscape-font-specification:'MT Extra, Normal';text-align:start;letter-spacing:0px;word-spacing:0px;writing-mode:lr-tb;text-anchor:start;fill:#000000;fill-opacity:1;stroke:none;stroke-width:1px;stroke-linecap:butt;stroke-linejoin:miter;stroke-opacity:1"
         xml:space="preserve"><tspan
           style="font-style:normal;font-variant:normal;font-weight:normal;font-stretch:normal;font-size:27.5px;line-height:125%;font-family:AppleGothic;-inkscape-font-specification:'AppleGothic, Normal';text-align:center;writing-mode:lr-tb;text-anchor:middle"
           y="781.61139"
           x="173.01636"
           id="tspan4330"
           sodipodi:role="line">Reference</tspan><tspan
           style="font-style:normal;font-variant:normal;font-weight:normal;font-stretch:normal;font-size:27.5px;line-height:125%;font-family:AppleGothic;-inkscape-font-specification:'AppleGothic, Normal';text-align:center;writing-mode:lr-tb;text-anchor:middle"
           id="tspan4332"
           y="815.98639"
           x="173.01636"
           sodipodi:role="line">measurement</tspan></text>
    </g>
    <flowRoot
       xml:space="preserve"
       id="flowRoot4334"
       style="fill:black;stroke:none;stroke-opacity:1;stroke-width:1px;stroke-linejoin:miter;stroke-linecap:butt;fill-opacity:1;font-family:'MT Extra';font-style:normal;font-weight:normal;font-size:40px;line-height:125%;letter-spacing:0px;word-spacing:0px;-inkscape-font-specification:'MT Extra, Normal';font-stretch:normal;font-variant:normal;text-anchor:start;text-align:start;writing-mode:lr"><flowRegion
         id="flowRegion4336"><rect
           id="rect4338"
           width="173.67673"
           height="54.810528"
           x="101.03627"
           y="708.02295" /></flowRegion><flowPara
         id="flowPara4340" /></flowRoot>    <flowRoot
       xml:space="preserve"
       id="flowRoot4342"
       style="fill:black;stroke:none;stroke-opacity:1;stroke-width:1px;stroke-linejoin:miter;stroke-linecap:butt;fill-opacity:1;font-family:'MT Extra';font-style:normal;font-weight:normal;font-size:40px;line-height:125%;letter-spacing:0px;word-spacing:0px;-inkscape-font-specification:'MT Extra, Normal';font-stretch:normal;font-variant:normal;text-anchor:start;text-align:start;writing-mode:lr"><flowRegion
         id="flowRegion4344"><rect
           id="rect4346"
           width="212.63843"
           height="69.338615"
           x="75.942299"
           y="698.77777" /></flowRegion><flowPara
         id="flowPara4348" /></flowRoot>    <g
       id="g4358">
      <flowRoot
         style="fill:black;stroke:none;stroke-opacity:1;stroke-width:1px;stroke-linejoin:miter;stroke-linecap:butt;fill-opacity:1;font-family:'MT Extra';font-style:normal;font-weight:normal;font-size:40px;line-height:125%;letter-spacing:0px;word-spacing:0px;-inkscape-font-specification:'MT Extra, Normal';font-stretch:normal;font-variant:normal;text-anchor:start;text-align:start;writing-mode:lr"
         id="flowRoot4350"
         xml:space="preserve"><flowRegion
           id="flowRegion4352"><rect
             y="688.87225"
             x="61.414207"
             height="91.791122"
             width="235.75131"
             id="rect4354" /></flowRegion><flowPara
           id="flowPara4356" /></flowRoot>    </g>
    <g
       id="g4192"
       transform="translate(161.26684,59.097789)">
      <rect
         style="opacity:1;fill:none;fill-opacity:1;fill-rule:evenodd;stroke:#000000;stroke-width:2.05630875;stroke-miterlimit:4;stroke-dasharray:none;stroke-dashoffset:0;stroke-opacity:1"
         id="rect4182"
         width="105.94369"
         height="105.94369"
         x="324.33832"
         y="818.2124" />
      <text
         sodipodi:linespacing="125%"
         id="text4184"
         y="920.14343"
         x="345.57184"
         style="font-style:normal;font-variant:normal;font-weight:normal;font-stretch:normal;font-size:40px;line-height:125%;font-family:'MT Extra';-inkscape-font-specification:'MT Extra, Normal';text-align:start;letter-spacing:0px;word-spacing:0px;writing-mode:lr-tb;text-anchor:start;fill:#000000;fill-opacity:1;stroke:none;stroke-width:1px;stroke-linecap:butt;stroke-linejoin:miter;stroke-opacity:1"
         xml:space="preserve"><tspan
           style="font-style:normal;font-variant:normal;font-weight:normal;font-stretch:normal;font-size:30px;line-height:125%;font-family:AppleGothic;-inkscape-font-specification:'AppleGothic, Normal';text-align:start;writing-mode:lr-tb;text-anchor:start"
           y="920.14343"
           x="345.57184"
           id="tspan4186"
           sodipodi:role="line">3 cm</tspan></text>
      <text
         xml:space="preserve"
         style="font-style:normal;font-variant:normal;font-weight:normal;font-stretch:normal;font-size:40px;line-height:125%;font-family:'MT Extra';-inkscape-font-specification:'MT Extra, Normal';text-align:start;letter-spacing:0px;word-spacing:0px;writing-mode:lr-tb;text-anchor:start;fill:#000000;fill-opacity:1;stroke:none;stroke-width:1px;stroke-linecap:butt;stroke-linejoin:miter;stroke-opacity:1"
         x="325.5387"
         y="849.0257"
         id="text4188"
         sodipodi:linespacing="125%"><tspan
           sodipodi:role="line"
           id="tspan4190"
           x="325.5387"
           y="849.0257"
           style="font-style:normal;font-variant:normal;font-weight:normal;font-stretch:normal;font-size:30px;line-height:125%;font-family:AppleGothic;-inkscape-font-specification:'AppleGothic, Normal';text-align:start;writing-mode:lr-tb;text-anchor:start">3 cm</tspan></text>
    </g>
  </g>
</svg>
